<?xml version="1.0" encoding="utf-8"?>
<svg width="1334px" height="1334px" viewBox="0 0 1334 1334" version="1.1" xmlns:xlink="http://www.w3.org/1999/xlink" xmlns="http://www.w3.org/2000/svg">
  <desc>Created with Lunacy</desc>
  <defs>
    <path d="M0 0L1333.33 0L1333.33 1333.33L0 1333.33L0 0Z" id="path_1" />
    <clipPath id="mask_1">
      <use xlink:href="#path_1" />
    </clipPath>
  </defs>
  <g id="logo-svg-2">
    <path d="M0 0L1333.33 0L1333.33 1333.33L0 1333.33L0 0Z" id="Background" fill="none" stroke="none" />
    <g clip-path="url(#mask_1)">
      <g id="g10" transform="matrix(1.333333 0 0 -1.333333 533.3333 1067.712)">
        <g id="g12" transform="scale(0.1 0.1)">
          <path d="M249.32 68.2001L89.3799 68.2001L89.3799 508.62L249.32 508.62C356.33 508.62 377.5 411.6 377.5 301.64C377.5 176.99 354.57 68.2001 249.32 68.2001ZM89.3799 577.42L232.85 577.42C323.4 577.42 350.45 662.67 350.45 753.23C350.45 857.3 318.12 943.75 205.8 943.75L89.3799 943.75L89.3799 577.42ZM0 0L0 1011.95L217.56 1011.95C398.08 1011.95 446.3 882.01 446.3 755C446.3 677.97 409.251 581.53 336.92 548.61C437.47 508.03 466.88 387.5 466.88 301.64C466.88 141.11 432.771 0.000244141 235.21 0.000244141L0 0.000244141" id="path22" fill="#F57820" fill-rule="evenodd" stroke="none" />
          <path d="M0 0.00012207L0 1011.95L352.8 1011.95L352.8 940.21L89.3696 940.21L89.3696 556.83L277.54 556.83L277.54 489.22L89.3701 489.22L89.3701 71.74L352.8 71.74L352.8 0L0.000488281 0" transform="translate(580.1201 0)" id="path24" fill="#F57820" stroke="none" />
          <path d="M0 0.00012207L0 1011.95L352.81 1011.95L352.81 940.21L89.3901 940.21L89.3901 556.83L277.54 556.83L277.54 489.22L89.3901 489.22L89.3901 71.74L352.81 71.74L352.81 0L0 0" transform="translate(1038.98 0)" id="path26" fill="#F57820" stroke="none" />
          <path d="M89.3799 565.66L269.31 565.66C376.33 565.66 397.49 658.56 397.49 753.23C397.49 853.78 373.98 940.21 269.31 940.21L89.3799 940.21L89.3799 565.66ZM0 0.00012207L0 1011.95L269.89 1011.95C445.71 1011.95 486.88 890.82 486.88 750.29C486.88 646.8 456.89 545.66 345.75 505.1L502.16 0L406.91 0L259.32 493.92L89.3799 493.92L89.3799 0L0 0" transform="translate(1497.84 0)" id="path28" fill="#F57820" stroke="none" />
          <path d="M1070.34 1577.48C1014.21 1225.06 955.496 1066.73 989.505 650.734C1003.66 467.624 1029.98 309.614 1043.32 184.994C1046.3 152.614 1049.39 114.374 1044.17 86.094C1035.56 48.144 1014.5 35.7939 975.065 24.2041C892.485 0.864014 729.625 -0.99585 643.825 0.314209C563.405 0.924316 237.675 14.1843 178.965 75.9343C219.355 43.3542 528.695 48.0742 642.646 54.4744C657.076 55.3843 954.576 73.9243 971.116 100.384C975.686 107.724 967.916 167.824 966.796 176.394C954.236 277.094 923.696 436.054 913.426 645.944C893.876 1078.13 957.946 1244.2 1021 1585.96C1082.7 1920.6 1199.82 2662.86 1068.61 2979.94C1222.1 2644.36 1129.26 1947.83 1070.34 1577.48L1070.34 1577.48ZM214.615 1261.12C262.185 997.664 248.655 731.194 212.215 468.564C235.865 733.014 229.065 997.054 175.655 1253.58C99.5952 1604.57 30.2051 1982.38 4.91504 2353.03C-7.20508 2549.46 -2.30518 2814.14 82.7451 2992.49L91.8452 3011.58L111.155 3011C460.095 3000.67 573.745 2981.37 589.875 2979.94C534.445 2974.99 501.076 2962.37 133.375 2949.66C75.3257 2783.87 77.2554 2532.38 81.6157 2356.45C90.0757 1999.17 149.726 1612.38 214.616 1261.12" transform="translate(410.1348 1252.656)" id="path30" fill="#657785" stroke="none" />
          <path d="M118.075 1749.08C73.5449 1903.33 239.854 2068.58 393.085 2024.08C244.785 1980.93 160.815 1896.86 118.075 1749.08L118.075 1749.08ZM3216.98 4698.54C3215.83 4700.68 3213.17 4701.49 3211.03 4700.36C2981.77 4578.26 2753.48 4454.25 2527.15 4326.57C2288.04 4191.42 2239.48 4160.85 2186.55 4153.91C2117.3 4144.31 2075.74 4166.92 2002.97 4184.79C1932.06 4202.34 1863.9 4202.06 1798.77 4171.2C1681.79 4113.64 1564.33 4059.8 1446.57 4004.65C1135.64 3859.37 1039.33 3814.82 917.374 3755.85C815.474 3706.49 726.193 3670.63 673.983 3570.13C584.013 3398.92 674.383 3152.45 729.233 2880.58C833.283 2364.96 892.503 1418.42 364.673 1426.09C171.173 1430.52 36.4932 1613.12 42.2832 1790.3C45.123 1907.93 111.813 2017.9 246.323 2081.55C248.343 2082.51 249.363 2084.88 248.573 2087.03C247.753 2089.3 245.253 2090.48 242.983 2089.68C242.943 2089.67 242.903 2089.65 242.854 2089.64C98.1934 2036.97 14.8936 1926.9 2.12354 1792.96C-26.9663 1487.76 254.224 1213.13 150.523 296.19C143.894 237.59 131.224 83.9697 126.583 26.7996C126.104 20.9197 128.003 15.0896 131.863 10.6296C135.713 6.16968 141.203 3.4397 147.093 3.05957C242.753 -3.14038 486.813 -1.28052 658.153 21.4895C663.963 22.2595 669.203 25.2996 672.753 29.9495C676.303 34.5894 677.843 40.4595 677.063 46.2495C635.664 351.08 598.043 607.689 648.233 977.27C722.374 1523.03 947.084 1793.16 851.033 2567.29C765.463 3256.92 555.863 3505.35 944.223 3701.56C1064.38 3762.2 1157.5 3807.2 1468.36 3958.93C1612.12 4029.09 1734.77 4088.47 1817.62 4131.4C1871 4158.82 1933.32 4160.37 1993.91 4146.19C2064.89 4130.59 2113.96 4106.32 2191.98 4119.09C2253.37 4129 2302.89 4162.28 2540.4 4303.7C2763.55 4436.33 2988.86 4565.4 3215.25 4692.63C3217.32 4693.8 3218.1 4696.43 3216.98 4698.54" transform="translate(584.9854 1412.23)" id="path32" fill="#F57820" stroke="none" />
          <path d="M1406.03 1187.43C1365.74 1126.28 1368.58 1048.06 1320.56 968.459C1298.89 933.179 1269.36 902.838 1234.04 883.579C1263.53 910.648 1286.51 943.059 1301.48 978.349C1337.05 1059.13 1327.92 1136.74 1370.7 1209.28C1433.04 1313.66 1790.92 1485.33 1882.1 1527.52C1598.97 1353.52 1466.04 1280.63 1406.03 1187.43ZM456.13 60.6289C477.49 66.8589 509.24 75.8091 592.291 103.269C664.55 127.199 735.98 153.369 807.36 179.699C949.64 233.599 1090.76 290.449 1230.26 351.329C1365.43 409.699 1461.94 456.119 1461.94 456.119C1467.23 458.139 1472.66 459.289 1478.71 459.769C1490.73 460.749 1505.62 458.469 1522 454.269C1582.1 438.699 1655.82 404.699 1757.62 412.719C1799.96 415.889 1841.24 425.899 1879.93 440.209C1934.53 460.259 1964.52 479.569 2087.1 549.979C2349.91 701.759 2611.42 855.789 2870.77 1013.57C3130.38 1170.89 3388.43 1330.93 3642.1 1498.54C3370.11 1362.65 3102.49 1219.19 2836.43 1073.03C2570.12 927.33 2305.97 777.87 2043.11 626.16C1916.67 552.77 1898.91 540.65 1849.36 521.419C1817.1 508.989 1784 500.62 1750.65 497.64C1667.89 490.06 1603.4 517.28 1540.49 532.1C1520.07 536.609 1496.95 540.54 1471.06 537.85C1458.24 536.49 1445.01 533.26 1432.73 528.09C1428.25 526.13 1206.06 415.63 1201.67 413.48C1133.59 380.09 932.06 284 790.83 219.37C722.15 187.33 652.93 156.52 583.58 125.89C529.8 102.12 495.67 88.0103 452.81 70.0903C447.99 68.5103 442.63 64.5903 439.59 60.4702C428.31 46.3804 423.6 19.6802 401.92 0C433.39 22.4102 436.88 57.0898 456.13 60.6299L456.13 60.6289ZM2552.98 2076.4C2123.69 1795.61 1667.82 1527.52 1456.37 1401.29C1397.99 1367.09 1345.41 1328.63 1306.22 1273.43C1261.49 1210.68 1251.33 1149.93 1235.93 1087.28C1231.21 1069.11 1225.72 1049.83 1216.17 1029.66C1206.83 1009.69 1191.58 988.528 1171.2 973.868L1081.17 913.238C887.071 781.448 605.481 580.088 387.391 412.678C303.441 348.098 297.751 340.448 287.871 335.708C279.881 332.128 272.601 331.348 266.801 331.128C255.121 330.848 246.721 332.058 238.681 332.228C226.091 332.658 210.571 331.598 200.541 323.868C178.821 306.808 156.451 267.688 128.831 245.078C118.871 237.268 108.051 231.628 95.3608 231.998C82.731 232.408 73.6607 236.428 65.4209 239.038C54.4209 242.878 41.001 246.708 27.3408 233.938C17.8208 225.908 16.9409 208.768 20.0107 192.268C27.6406 148.918 60.7207 82.8579 79.4409 44.9683C53.041 84.9482 16.041 144.218 3.88086 188.688C-1.729 209.838 -2.94922 232.519 11.9106 248.698C30.7505 269.968 53.5308 268.288 72.7207 263.828C81.5806 261.518 89.6807 259.358 95.0605 259.838C100.621 260.248 105.541 264.138 109.63 267.928C131.38 288.348 149.69 327.828 176.041 352.678C193.05 367.908 215.911 372.778 238.73 373.318C248.561 373.568 258.03 373.048 264.221 373.698C269.281 374.128 351.011 447.908 355.48 451.768C547.42 617.988 821.47 824.148 1038.55 975.238L1125.99 1035.15C1134.65 1041.62 1141.2 1050.2 1146.98 1062.52C1152.73 1074.73 1157.18 1090.02 1161.38 1106.42C1176.88 1166.69 1189.97 1241.39 1245.16 1317.26C1291.56 1381.36 1355.38 1429.14 1420.01 1464.25C1613.4 1572.16 2089.12 1841.96 2552.98 2076.4" transform="translate(1014.66 4939.281)" id="path34" fill="#657785" fill-rule="evenodd" stroke="none" />
        </g>
      </g>
    </g>
  </g>
</svg>